<svg xmlns="http://www.w3.org/2000/svg" width="141.651" height="129.27" viewBox="0 0 141.651 129.27"><defs><style>.a{fill:#dee0ef;}.b{fill:#4452b8;}.c{fill:#6170d6;}.d{fill:#8d99ea;}.e{fill:#ffca5d;}.f{fill:#f6b545;}.g{fill:#ffcb5b;}.h{fill:#ffe27a;}.i{fill:#f19920;}.j{fill:#e78825;}</style></defs><g transform="translate(-264.307 -1155.246)"><path class="a" d="M8792.151,1103c-14.3-63.536-20.509-106.96,64.253-84.718s33.373,85.942,17.31,107.122S8806.451,1166.54,8792.151,1103Z" transform="matrix(-0.07, -0.998, 0.998, -0.07, -124.518, 10117.356)"/><g transform="matrix(-0.966, 0.259, -0.259, -0.966, 405.764, 1268.229)"><path class="b" d="M107.9,90.069H5.138A5.153,5.153,0,0,1,0,84.931V28.41a5.153,5.153,0,0,1,5.138-5.138H107.9a5.153,5.153,0,0,1,5.138,5.138v56.52A5.154,5.154,0,0,1,107.9,90.069Z" transform="translate(0 0)"/><path class="b" d="M286.376,232.727a17.2,17.2,0,0,0-14.387,7.45,19.163,19.163,0,0,0-8.735-2.312,17.976,17.976,0,0,0-17.727,15.415h53.694a5.226,5.226,0,0,0,5.138-4.368A18.3,18.3,0,0,0,286.376,232.727Z" transform="translate(-191.319 -163.211)"/><path class="c" d="M115.761,103.066H33.549A10.306,10.306,0,0,0,23.273,92.79V56.822A10.306,10.306,0,0,0,33.549,46.546h82.212a10.306,10.306,0,0,0,10.276,10.276V92.79A10.306,10.306,0,0,0,115.761,103.066Z" transform="translate(-18.135 -18.135)"/><g transform="translate(20.553 33.549)"><path class="b" d="M291.816,232.727a17.2,17.2,0,0,0-14.387,7.45,19.163,19.163,0,0,0-8.735-2.312,17.648,17.648,0,0,0-16.185,10.276h41.877a10.253,10.253,0,0,1,10.02-10.276A18.572,18.572,0,0,0,291.816,232.727Z" transform="translate(-217.312 -196.76)"/><ellipse class="b" cx="20.553" cy="23.122" rx="20.553" ry="23.122" transform="translate(15.415)"/><circle class="b" cx="5.138" cy="5.138" r="5.138" transform="translate(0 17.984)"/><circle class="b" cx="5.138" cy="5.138" r="5.138" transform="translate(61.658 17.984)"/></g><path class="d" d="M222.3,117.574h-5.138a2.569,2.569,0,1,1,0-5.138h7.707a2.569,2.569,0,1,0,0-5.138H222.3a2.569,2.569,0,1,0-5.138,0,7.707,7.707,0,0,0,0,15.415H222.3a2.569,2.569,0,1,1,0,5.138h-7.707a2.569,2.569,0,1,0,0,5.138h2.569a2.569,2.569,0,1,0,5.138,0,7.707,7.707,0,1,0,0-15.415Z" transform="translate(-163.211 -63.473)"/><circle class="e" cx="17.984" cy="17.984" r="17.984" transform="translate(48.813 74.654)"/><circle class="f" cx="17.984" cy="17.984" r="17.984" transform="translate(71.935 69.516)"/><path class="g" d="M343.8,232.727a17.984,17.984,0,1,0,17.984,17.984A17.873,17.873,0,0,0,343.8,232.727Zm0,30.829a12.846,12.846,0,1,1,12.846-12.846A12.721,12.721,0,0,1,343.8,263.556Z" transform="translate(-253.883 -163.211)"/><path class="f" d="M407.273,331.909h0a17.658,17.658,0,0,0,17.984-17.727H425a2.732,2.732,0,0,0-2.569,2.312,15.533,15.533,0,0,1-4.881,9.249,14.556,14.556,0,0,1-7.964,3.854A2.3,2.3,0,0,0,407.273,331.909Z" transform="translate(-317.354 -226.682)"/><path class="h" d="M343.8,233.87h0A17.657,17.657,0,0,0,325.818,251.6h.257a2.732,2.732,0,0,0,2.569-2.312,15.533,15.533,0,0,1,4.881-9.249,14.557,14.557,0,0,1,7.964-3.854A2.3,2.3,0,0,0,343.8,233.87Z" transform="translate(-253.883 -164.097)"/><path class="i" d="M350.889,270.644A12.721,12.721,0,0,1,363.735,257.8a12.118,12.118,0,0,1,8.221,3.083,12.806,12.806,0,0,0-22.865,7.964,12.317,12.317,0,0,0,4.624,9.763A12.049,12.049,0,0,1,350.889,270.644Z" transform="translate(-272.018 -181.346)"/><path class="g" d="M438.1,317.613a.944.944,0,0,1-.771-.257,1.242,1.242,0,0,1,0-1.8,8.574,8.574,0,0,0,2.312-5.909,1.285,1.285,0,1,1,2.569,0,11.863,11.863,0,0,1-2.826,7.707A2.792,2.792,0,0,1,438.1,317.613Z" transform="translate(-340.476 -222.149)"/><g transform="translate(72.192 74.654)"><path class="i" d="M398.206,294.688a2.427,2.427,0,0,1-2.569-2.569V281.843a2.569,2.569,0,1,1,5.138,0v10.276A2.427,2.427,0,0,1,398.206,294.688Z" transform="translate(-380.479 -274.136)"/><path class="i" d="M354.214,284a20.874,20.874,0,0,0-12.332-13.873A21.478,21.478,0,0,0,332.119,256a18.571,18.571,0,0,0-5.138,12.589,17.873,17.873,0,0,0,17.984,17.984A14.9,14.9,0,0,0,354.214,284Z" transform="translate(-326.981 -256)"/></g><g transform="translate(77.073 77.994)"><path class="j" d="M353.715,290.4a13.515,13.515,0,0,1-3.083-8.221,12.437,12.437,0,0,1,4.111-9.249,11.169,11.169,0,0,0-1.542-1.8,12.586,12.586,0,0,0-4.111,9.506A12.318,12.318,0,0,0,353.715,290.4Z" transform="translate(-349.09 -271.128)"/><path class="j" d="M395.636,321.164v3.6a2.569,2.569,0,0,0,5.138,0v-.514A20.989,20.989,0,0,0,395.636,321.164Z" transform="translate(-385.359 -310.117)"/></g><path class="f" d="M353.307,284.909a16.422,16.422,0,0,0-2.055-4.881,12.431,12.431,0,0,1-7.45,2.569,12.721,12.721,0,0,1-12.846-12.846,12.586,12.586,0,0,1,4.111-9.506,15.673,15.673,0,0,0-4.111-3.083,18.571,18.571,0,0,0-5.138,12.589A17.873,17.873,0,0,0,343.8,287.734,17.224,17.224,0,0,0,353.307,284.909Z" transform="translate(-253.883 -182.251)"/><path class="i" d="M416.007,372.364a17.757,17.757,0,0,1-6.423,2.569,2.732,2.732,0,0,0-2.312,2.569h0a17.229,17.229,0,0,0,9.506-2.826Z" transform="translate(-317.353 -272.019)"/><path class="g" d="M330.956,257.164a18.571,18.571,0,0,0-5.138,12.589h.257a2.732,2.732,0,0,0,2.569-2.312,15.986,15.986,0,0,1,4.624-8.992A10.422,10.422,0,0,1,330.956,257.164Z" transform="translate(-253.883 -182.253)"/><circle class="f" cx="17.984" cy="17.984" r="17.984" transform="translate(48.813 74.654)"/><path class="i" d="M290.909,332.165a17.8,17.8,0,0,0,.771,5.138h1.8a17.922,17.922,0,0,0,17.213-23.122h-1.8A17.873,17.873,0,0,0,290.909,332.165Z" transform="translate(-226.681 -226.681)"/><path class="g" d="M239.074,256a17.984,17.984,0,1,0,17.984,17.984A17.873,17.873,0,0,0,239.074,256Zm0,30.829a12.846,12.846,0,1,1,12.846-12.846A12.721,12.721,0,0,1,239.074,286.829Z" transform="translate(-172.277 -181.346)"/><path class="f" d="M302.545,355.182h0a17.657,17.657,0,0,0,17.984-17.727h-.257a2.732,2.732,0,0,0-2.569,2.312,15.533,15.533,0,0,1-4.881,9.249,14.557,14.557,0,0,1-7.964,3.854A2.3,2.3,0,0,0,302.545,355.182Z" transform="translate(-235.748 -244.817)"/><path class="h" d="M239.074,257.143h0A17.658,17.658,0,0,0,221.09,274.87h.257a2.732,2.732,0,0,0,2.569-2.312,15.532,15.532,0,0,1,4.881-9.249,14.557,14.557,0,0,1,7.964-3.854A2.3,2.3,0,0,0,239.074,257.143Z" transform="translate(-172.277 -182.232)"/><path class="i" d="M246.162,293.917a12.721,12.721,0,0,1,12.846-12.846,12.118,12.118,0,0,1,8.221,3.083,12.806,12.806,0,0,0-22.865,7.964,12.317,12.317,0,0,0,4.624,9.763A12.05,12.05,0,0,1,246.162,293.917Z" transform="translate(-190.412 -199.48)"/><path class="g" d="M333.375,340.885a.944.944,0,0,1-.771-.257,1.242,1.242,0,0,1,0-1.8,8.574,8.574,0,0,0,2.312-5.909,1.285,1.285,0,1,1,2.569,0,11.863,11.863,0,0,1-2.826,7.707A2.793,2.793,0,0,1,333.375,340.885Z" transform="translate(-258.871 -240.282)"/><path class="i" d="M293.478,317.962a2.427,2.427,0,0,1-2.569-2.569V305.116a2.569,2.569,0,1,1,5.138,0v10.276A2.427,2.427,0,0,1,293.478,317.962Z" transform="translate(-226.681 -217.616)"/><g transform="translate(61.658 87.5)"><path class="f" d="M305.3,314.438a15.025,15.025,0,0,1,1.028,4.881,12.721,12.721,0,0,1-12.846,12.846,8.738,8.738,0,0,1-2.569-.257v.257a17.8,17.8,0,0,0,.771,5.138h1.8a17.922,17.922,0,0,0,17.213-23.122h-1.8A16.991,16.991,0,0,0,305.3,314.438Z" transform="translate(-288.341 -314.181)"/><circle class="f" cx="17.984" cy="17.984" r="17.984" transform="translate(0 2.569)"/></g><path class="g" d="M297.256,325.818A17.984,17.984,0,1,0,315.24,343.8,17.873,17.873,0,0,0,297.256,325.818Zm0,30.829A12.846,12.846,0,1,1,310.1,343.8,12.721,12.721,0,0,1,297.256,356.647Z" transform="translate(-217.614 -235.749)"/><path class="f" d="M360.727,425h0a17.658,17.658,0,0,0,17.984-17.727h-.257a2.732,2.732,0,0,0-2.569,2.312A15.533,15.533,0,0,1,371,418.834a14.558,14.558,0,0,1-7.964,3.854A2.3,2.3,0,0,0,360.727,425Z" transform="translate(-281.085 -299.22)"/><path class="h" d="M297.256,326.961h0a17.657,17.657,0,0,0-17.984,17.727h.257a2.732,2.732,0,0,0,2.569-2.312,15.533,15.533,0,0,1,4.881-9.249,14.557,14.557,0,0,1,7.964-3.854A2.3,2.3,0,0,0,297.256,326.961Z" transform="translate(-217.614 -236.635)"/><path class="i" d="M304.344,363.735a12.721,12.721,0,0,1,12.846-12.846,12.118,12.118,0,0,1,8.221,3.083,12.806,12.806,0,0,0-22.865,7.964,12.317,12.317,0,0,0,4.624,9.763A12.049,12.049,0,0,1,304.344,363.735Z" transform="translate(-235.748 -253.884)"/><path class="g" d="M391.556,410.7a.944.944,0,0,1-.771-.257,1.242,1.242,0,0,1,0-1.8,8.574,8.574,0,0,0,2.312-5.909,1.284,1.284,0,0,1,2.569,0,11.863,11.863,0,0,1-2.826,7.707A2.793,2.793,0,0,1,391.556,410.7Z" transform="translate(-304.206 -294.686)"/><path class="i" d="M351.66,387.779a2.427,2.427,0,0,1-2.569-2.569V374.933a2.569,2.569,0,0,1,5.138,0v10.276A2.427,2.427,0,0,1,351.66,387.779Z" transform="translate(-272.018 -272.019)"/></g></g></svg>