<svg xmlns="http://www.w3.org/2000/svg" xmlns:xlink="http://www.w3.org/1999/xlink" width="197.382" height="189.578" viewBox="0 0 197.382 189.578"><defs><style>.a{fill:#dee0ef;}.b{fill:url(#a);}.c{fill:url(#b);}.d{fill:url(#c);}.e{fill:url(#d);}.f{fill:url(#e);}.g{fill:url(#f);}.h,.s{fill:#fff;}.i{fill:url(#g);}.j{fill:url(#h);}.k{fill:url(#i);}.l{fill:url(#j);}.m{fill:url(#k);}.n{fill:url(#l);}.o{fill:url(#m);}.p{fill:url(#n);}.q{fill:url(#o);}.r{fill:#00be5f;}.s{font-size:14px;font-family:SFProText-Bold, SF Pro Text;font-weight:700;letter-spacing:-0.024em;}</style><linearGradient id="a" x1="0.293" y1="0.844" x2="0.666" y2="0.154" gradientUnits="objectBoundingBox"><stop offset="0" stop-color="#6170d6"/><stop offset="1" stop-color="#4452b8"/></linearGradient><linearGradient id="b" x1="0.136" y1="0.269" x2="0.779" y2="-1.005" gradientUnits="objectBoundingBox"><stop offset="0" stop-color="#c2cece"/><stop offset="1" stop-color="#97aaaa"/></linearGradient><linearGradient id="c" x1="0.456" y1="-6.007" x2="0.456" y2="-5.336" gradientUnits="objectBoundingBox"><stop offset="0" stop-color="#c2cece" stop-opacity="0"/><stop offset="0.179" stop-color="#afbcbc" stop-opacity="0.18"/><stop offset="1" stop-color="#5b6a6a"/></linearGradient><linearGradient id="d" x1="0.121" y1="0.034" x2="0.998" y2="-1.03" xlink:href="#a"/><linearGradient id="e" x1="0.599" y1="-0.335" x2="-0.002" y2="1.162" xlink:href="#a"/><linearGradient id="f" x1="0.387" y1="-6.346" x2="0.28" y2="-5.165" xlink:href="#c"/><linearGradient id="g" x1="0.373" y1="-0.101" x2="0.373" y2="1.267" xlink:href="#c"/><linearGradient id="h" x1="-0.296" y1="-0.102" x2="-0.296" y2="1.288" xlink:href="#c"/><linearGradient id="i" x1="-0.039" y1="0.617" x2="-1.451" y2="0.555" gradientUnits="objectBoundingBox"><stop offset="0" stop-color="#008bf2" stop-opacity="0"/><stop offset="1" stop-color="#0046e2"/></linearGradient><linearGradient id="j" x1="0.481" y1="4.49" x2="0.035" y2="4.919" xlink:href="#i"/><linearGradient id="k" x1="0.112" y1="7.096" x2="0.112" y2="4.202" gradientUnits="objectBoundingBox"><stop offset="0" stop-color="#ffc200"/><stop offset="0.268" stop-color="#fb0"/><stop offset="0.659" stop-color="#ffa801"/><stop offset="1" stop-color="#ff9102"/></linearGradient><linearGradient id="l" x1="-0.625" y1="6.64" x2="0.221" y2="6.64" gradientUnits="objectBoundingBox"><stop offset="0" stop-color="#ffc200" stop-opacity="0"/><stop offset="0.203" stop-color="#fb0" stop-opacity="0.204"/><stop offset="0.499" stop-color="#ffa700" stop-opacity="0.498"/><stop offset="0.852" stop-color="#f80" stop-opacity="0.851"/><stop offset="1" stop-color="#ff7800"/></linearGradient><linearGradient id="m" x1="0.379" y1="4.49" x2="-0.068" y2="4.919" xlink:href="#i"/><linearGradient id="n" x1="-0.115" y1="7.096" x2="-0.115" y2="4.202" xlink:href="#k"/><linearGradient id="o" x1="-1.079" y1="6.64" x2="-0.234" y2="6.64" xlink:href="#l"/></defs><g transform="translate(-232.764 -1136.919)"><path class="a" d="M8792.913,1115.694c-15.577-72.434-22.339-121.939,69.987-96.583s36.352,97.978,18.854,122.124S8808.489,1188.128,8792.913,1115.694Z" transform="translate(-3150.394 -6976.112) rotate(60)"/><g transform="translate(277 1156.066)"><path class="b" d="M121.121,42.994H42.428a4.005,4.005,0,0,0-4,4v82.612a4.005,4.005,0,0,0,4,4h78.693a4.005,4.005,0,0,0,4-4V47A4.005,4.005,0,0,0,121.121,42.994Z" transform="translate(-30.768 -23.063)"/><path class="c" d="M121.125,307.4H42.433a4,4,0,0,1-4-4V260.019h86.7v43.374A4,4,0,0,1,121.125,307.4Z" transform="translate(-30.772 -196.847)"/><path class="d" d="M121.125,447.926H42.433a4,4,0,0,1-4-4v-8.408h86.7v8.408A4,4,0,0,1,121.125,447.926Z" transform="translate(-30.772 -337.376)"/><path class="e" d="M98.007,296.583h-94a4,4,0,0,1-3.9-4.9L7.657,258.68h86.7l7.554,33.005A4,4,0,0,1,98.007,296.583Z" transform="translate(0 -195.775)"/><path class="f" d="M128.78,296.583a4,4,0,0,0,3.9-4.9l-7.554-33.005h-86.7l37.9,37.9Z" transform="translate(-30.772 -195.775)"/><path class="g" d="M125.128,448.911h-86.7v.133l9.609,9.609h73.087a4,4,0,0,0,4-4Z" transform="translate(-30.772 -348.104)"/><g transform="translate(30.312 40.951)"><path class="h" d="M152.136,178.623V161.731q0-6.675,3.541-9.81t9.462-3.135q5.921,0,9.491,3.135t3.57,9.81v16.892q0,6.676-3.57,9.81t-9.491,3.135q-5.921,0-9.462-3.135T152.136,178.623Zm6.153,0q0,7.488,6.85,7.488a6.781,6.781,0,0,0,5.108-1.858q1.8-1.857,1.8-5.631V161.731q0-3.773-1.8-5.631a6.786,6.786,0,0,0-5.108-1.858q-6.85,0-6.85,7.488Z" transform="translate(-152.136 -148.728)"/><path class="h" d="M301.885,157.318a2.77,2.77,0,0,1,1.219-2.38l6.037-5.8a2.131,2.131,0,0,1,1.567-.639,3.372,3.372,0,0,1,1.887.552,1.7,1.7,0,0,1,.842,1.48v38.428a1.667,1.667,0,0,1-.929,1.48,4.124,4.124,0,0,1-2.148.552,4.078,4.078,0,0,1-2.177-.552,1.672,1.672,0,0,1-.9-1.48V156.679l-2.032,2.554a1.775,1.775,0,0,1-1.277.58,1.821,1.821,0,0,1-1.48-.784A2.727,2.727,0,0,1,301.885,157.318Z" transform="translate(-272.048 -148.494)"/></g><g transform="translate(30.312 62.905)"><path class="i" d="M172.045,258.679v7.941q0,3.776-1.8,5.632a6.777,6.777,0,0,1-5.106,1.858q-6.851,0-6.852-7.49v-7.941h-6.152v7.941q0,6.678,3.542,9.809t9.462,3.136q5.918,0,9.489-3.136t3.571-9.809v-7.941Z" transform="translate(-152.135 -258.679)"/><path class="j" d="M328.983,258.679v18.506a1.674,1.674,0,0,0,.9,1.481,4.07,4.07,0,0,0,2.175.55,4.119,4.119,0,0,0,2.149-.55,1.669,1.669,0,0,0,.929-1.481V258.679Z" transform="translate(-293.747 -258.679)"/></g><path class="k" d="M457.424,118.973l-7.554-33V47a4.005,4.005,0,0,0-4-4h-1.894a4.005,4.005,0,0,1,4,4v38.97l7.554,33a4,4,0,0,1-3.9,4.9h1.894A4,4,0,0,0,457.424,118.973Z" transform="translate(-355.514 -23.063)"/><path class="l" d="M166.09,50.126A3.726,3.726,0,0,1,164.9,47.4v-4.4h7.474l6.1,6.1a10.374,10.374,0,0,1,3.038,7.336h0a3.808,3.808,0,0,1-3.564,3.84,3.727,3.727,0,0,1-2.9-1.184Z" transform="translate(-132.046 -23.063)"/><path class="m" d="M168.64,28.072h0a3.737,3.737,0,0,1-3.737-3.737V17.929a3.737,3.737,0,0,1,3.737-3.737h0a3.737,3.737,0,0,1,3.737,3.737v6.406A3.737,3.737,0,0,1,168.64,28.072Z" transform="translate(-132.047)"/><path class="n" d="M183.658,14.192v13.88a3.737,3.737,0,0,0,3.737-3.737V17.929A3.737,3.737,0,0,0,183.658,14.192Z" transform="translate(-147.065 0)"/><path class="o" d="M302.4,50.126a3.726,3.726,0,0,1-1.188-2.728v-4.4h7.474l6.1,6.1a10.374,10.374,0,0,1,3.038,7.336h0a3.808,3.808,0,0,1-3.564,3.84,3.727,3.727,0,0,1-2.9-1.184Z" transform="translate(-241.196 -23.063)"/><path class="p" d="M304.95,28.072h0a3.737,3.737,0,0,1-3.737-3.737V17.929a3.737,3.737,0,0,1,3.737-3.737h0a3.737,3.737,0,0,1,3.737,3.737v6.406A3.737,3.737,0,0,1,304.95,28.072Z" transform="translate(-241.198)"/><path class="q" d="M319.968,14.192v13.88a3.737,3.737,0,0,0,3.737-3.737V17.929A3.737,3.737,0,0,0,319.968,14.192Z" transform="translate(-256.216 0)"/></g><g transform="translate(4 -62)"><circle class="r" cx="14" cy="14" r="14" transform="translate(354 1299)"/><text class="s" transform="translate(360 1318)"><tspan x="0" y="0">􀆅</tspan></text></g></g></svg>