<svg xmlns="http://www.w3.org/2000/svg" width="25.383" height="16.376" viewBox="0 0 25.383 16.376"><defs><style>.a{fill:#e5646e;}.b{fill:#f2f2f6;}.c{fill:#db4655;}.d{fill:#5055a0;}.e{fill:#3f3f8f;}.f{fill:#fff;}.g{fill:#e1e1e6;}</style></defs><g transform="translate(0 -90.839)"><path class="a" d="M33.118,90.839H21.655L9,99.6v7.28H33.118l.819-.48v-1.521l-.533-.507v-1.438l.533-.395V100.2l-.479-.459V98.267l.479-.41V95.518l-.479-.424V93.805l.479-.627V91.658A.819.819,0,0,0,33.118,90.839Z" transform="translate(-8.554)"/><path class="b" d="M256.333,138.028h12.675v2.339H256.333Z" transform="translate(-243.625 -44.85)"/><path class="b" d="M256,232.4l.409,2.339h12.282V232.4Z" transform="translate(-243.308 -134.548)"/><path class="c" d="M.819,275.169V271L0,271.426v2.339l.347.3V275.6L0,276.105v1.521a.819.819,0,0,0,.819.819H24.564a.819.819,0,0,0,.819-.819H3.275a2.456,2.456,0,0,1-2.456-2.456Z" transform="translate(0 -171.229)"/><path class="d" d="M18.8,90.839H6.521L6,91.658l.521,8.539H18.8Z" transform="translate(-5.703)"/><path class="e" d="M.819,90.839A.819.819,0,0,0,0,91.658V100.2H.819Z"/><path class="f" d="M25.226,111.96a.409.409,0,0,1,0-.819h0a.409.409,0,1,1,0,.819Z" transform="translate(-23.585 -19.295)"/><path class="f" d="M25.226,178.025a.409.409,0,0,1,0-.819h0a.409.409,0,1,1,0,.819Z" transform="translate(-23.585 -82.085)"/><path class="f" d="M25.226,244.089a.409.409,0,0,1,0-.819h0a.409.409,0,1,1,0,.819Z" transform="translate(-23.585 -144.874)"/><path class="b" d="M25.226,144.993a.409.409,0,0,1,0-.819h0a.409.409,0,1,1,0,.819Z" transform="translate(-23.585 -50.691)"/><path class="b" d="M25.226,211.057a.409.409,0,0,1,0-.819h0a.409.409,0,1,1,0,.819Z" transform="translate(-23.585 -113.48)"/><path class="f" d="M223.419,111.96a.409.409,0,0,1,0-.819h0a.409.409,0,1,1,0,.819Z" transform="translate(-211.952 -19.295)"/><path class="f" d="M223.419,178.025a.409.409,0,0,1,0-.819h0a.409.409,0,1,1,0,.819Z" transform="translate(-211.952 -82.085)"/><path class="f" d="M223.419,244.089a.409.409,0,0,1,0-.819h0a.409.409,0,1,1,0,.819Z" transform="translate(-211.952 -144.874)"/><g transform="translate(3.687 91.846)"><path class="b" d="M223.419,144.993a.409.409,0,0,1,0-.819h0a.409.409,0,1,1,0,.819Z" transform="translate(-215.639 -142.536)"/><path class="b" d="M223.419,211.057a.409.409,0,0,1,0-.819h0a.409.409,0,1,1,0,.819Z" transform="translate(-215.639 -205.325)"/><path class="b" d="M74.774,111.96a.409.409,0,0,1,0-.819h0a.409.409,0,1,1,0,.819Z" transform="translate(-74.363 -111.141)"/><path class="b" d="M74.774,178.025a.409.409,0,0,1,0-.819h0a.409.409,0,1,1,0,.819Z" transform="translate(-74.363 -173.931)"/><path class="b" d="M74.774,244.089a.409.409,0,0,1,0-.819h0a.409.409,0,1,1,0,.819Z" transform="translate(-74.363 -236.719)"/></g><path class="f" d="M74.774,144.993a.409.409,0,0,1,0-.819h0a.409.409,0,1,1,0,.819Z" transform="translate(-70.676 -50.691)"/><path class="f" d="M74.774,211.057a.409.409,0,0,1,0-.819h0a.409.409,0,1,1,0,.819Z" transform="translate(-70.676 -113.48)"/><path class="f" d="M50,128.476a.409.409,0,0,1,0-.819h0a.409.409,0,1,1,0,.819Z" transform="translate(-47.131 -34.993)"/><path class="f" d="M50,194.541a.409.409,0,0,1,0-.819h0a.409.409,0,1,1,0,.819Z" transform="translate(-47.131 -97.782)"/><path class="b" d="M50,161.509a.409.409,0,1,1,0-.819h0a.409.409,0,1,1,0,.819Z" transform="translate(-47.131 -66.388)"/><path class="b" d="M50,227.573a.409.409,0,1,1,0-.819h0a.409.409,0,1,1,0,.819Z" transform="translate(-47.131 -129.177)"/><path class="f" d="M124.323,111.96a.409.409,0,0,1,0-.819h0a.409.409,0,1,1,0,.819Z" transform="translate(-117.769 -19.295)"/><path class="f" d="M124.323,178.025a.409.409,0,0,1,0-.819h0a.409.409,0,1,1,0,.819Z" transform="translate(-117.769 -82.085)"/><path class="f" d="M124.323,244.089a.409.409,0,0,1,0-.819h0a.409.409,0,1,1,0,.819Z" transform="translate(-117.769 -144.874)"/><path class="b" d="M124.323,144.993a.409.409,0,0,1,0-.819h0a.409.409,0,1,1,0,.819Z" transform="translate(-117.769 -50.691)"/><path class="b" d="M124.323,211.057a.409.409,0,0,1,0-.819h0a.409.409,0,1,1,0,.819Z" transform="translate(-117.769 -113.48)"/><path class="b" d="M99.548,128.476a.409.409,0,0,1,0-.819h0a.409.409,0,1,1,0,.819Z" transform="translate(-94.222 -34.993)"/><path class="b" d="M99.548,194.541a.409.409,0,0,1,0-.819h0a.409.409,0,1,1,0,.819Z" transform="translate(-94.222 -97.782)"/><path class="f" d="M99.548,161.509a.409.409,0,0,1,0-.819h0a.409.409,0,1,1,0,.819Z" transform="translate(-94.222 -66.388)"/><path class="f" d="M99.548,227.573a.409.409,0,0,1,0-.819h0a.409.409,0,1,1,0,.819Z" transform="translate(-94.222 -129.177)"/><path class="b" d="M173.79,111.96a.409.409,0,0,1,0-.819h0a.409.409,0,1,1,0,.819Z" transform="translate(-164.783 -19.295)"/><path class="b" d="M173.79,178.025a.409.409,0,0,1,0-.819h0a.409.409,0,1,1,0,.819Z" transform="translate(-164.783 -82.085)"/><path class="b" d="M173.79,244.089a.409.409,0,0,1,0-.819h0a.409.409,0,1,1,0,.819Z" transform="translate(-164.783 -144.874)"/><path class="f" d="M173.79,144.993a.409.409,0,0,1,0-.819h0a.409.409,0,1,1,0,.819Z" transform="translate(-164.783 -50.691)"/><path class="f" d="M173.79,211.057a.409.409,0,1,1,0-.819h0a.409.409,0,1,1,0,.819Z" transform="translate(-164.783 -113.48)"/><path class="f" d="M149.016,128.476a.409.409,0,0,1,0-.819h0a.409.409,0,1,1,0,.819Z" transform="translate(-141.238 -34.993)"/><path class="f" d="M149.016,194.541a.409.409,0,0,1,0-.819h0a.409.409,0,1,1,0,.819Z" transform="translate(-141.238 -97.782)"/><path class="b" d="M149.016,161.509a.409.409,0,1,1,0-.819h0a.409.409,0,1,1,0,.819Z" transform="translate(-141.238 -66.388)"/><path class="b" d="M149.016,227.573a.409.409,0,1,1,0-.819h0a.409.409,0,1,1,0,.819Z" transform="translate(-141.238 -129.177)"/><path class="b" d="M198.645,128.476a.409.409,0,1,1,0-.819h0a.409.409,0,1,1,0,.819Z" transform="translate(-188.406 -34.993)"/><path class="b" d="M198.645,194.541a.409.409,0,1,1,0-.819h0a.409.409,0,1,1,0,.819Z" transform="translate(-188.406 -97.782)"/><path class="f" d="M198.645,161.509a.409.409,0,1,1,0-.819h0a.409.409,0,1,1,0,.819Z" transform="translate(-188.406 -66.388)"/><path class="f" d="M198.645,227.573a.409.409,0,1,1,0-.819h0a.409.409,0,1,1,0,.819Z" transform="translate(-188.406 -129.177)"/><path class="b" d="M3,328.446l.856.676H28.235v-2.339H3.67Z" transform="translate(-2.851 -224.247)"/><path class="g" d="M0,326.782v2.339H1a2.448,2.448,0,0,1-.186-.936v-1.4H0Z" transform="translate(0 -224.246)"/></g></svg>