<svg xmlns="http://www.w3.org/2000/svg" width="101.857" height="102.067" viewBox="0 0 101.857 102.067"><defs><style>.a{fill:#f9ae08;}.b{fill:#f99308;}.c{fill:#fff;}.d{fill:#ddd;}.e{fill:#6170d6;}.f{fill:#4452b8;}</style></defs><g transform="translate(0.001 -1.967)"><g transform="translate(57.267 2.286)"><circle class="a" cx="22.295" cy="22.295" r="22.295"/><g transform="translate(3.446 3.446)"><path class="b" d="M337.952,80.443A22.3,22.3,0,0,1,307.193,111.2a22.3,22.3,0,1,0,30.759-30.759Z" transform="translate(-307.193 -80.443)"/></g><g transform="translate(9.36 15.341)"><path class="c" d="M362.683,140.55l-5.42,3.129a.446.446,0,0,1-.67-.387v-1.4a2.233,2.233,0,0,0-2.233-2.233H338.869a2.233,2.233,0,0,0-2.233,2.233v10.369a2.233,2.233,0,0,0,2.233,2.233H354.36a2.233,2.233,0,0,0,2.233-2.233v-1.4a.447.447,0,0,1,.67-.387l5.42,3.129a1.116,1.116,0,0,0,1.674-.967V141.517A1.116,1.116,0,0,0,362.683,140.55Z" transform="translate(-336.636 -139.657)"/></g><g transform="translate(33.566 20.378)"><path class="d" d="M458.966,173.635a1.116,1.116,0,0,0,1.674-.967V164.73a22.188,22.188,0,0,1-3.516,7.842Z" transform="translate(-457.124 -164.73)"/></g></g><g transform="translate(-0.001 1.967)"><g transform="translate(0 7.641)"><path class="e" d="M92.511,110.063,77.772,95.324a6.534,6.534,0,0,0-9.241,0l-8.05,8.05a10.905,10.905,0,0,0-3.173,8.381l.105,1.713a.684.684,0,0,1-.816.715,19.51,19.51,0,0,1-9.916-5.335l-21.1-21.1a19.509,19.509,0,0,1-5.335-9.916.684.684,0,0,1,.715-.816l1.713.105a10.906,10.906,0,0,0,8.381-3.174L39.1,65.9a6.534,6.534,0,0,0,0-9.241L24.363,41.916a6.534,6.534,0,0,0-9.241,0,44.935,44.935,0,0,0-5.5,6.1,39.532,39.532,0,0,0,1.927,53.764l21.1,21.1A39.532,39.532,0,0,0,86.41,124.81a44.949,44.949,0,0,0,6.1-5.5,6.535,6.535,0,0,0,0-9.241Z" transform="translate(0.001 -40.002)"/></g><g transform="translate(29.687 72.597)"><path class="f" d="M210.6,368.446l-5.105-5.105a6.611,6.611,0,0,1-1.09,7.908,45.476,45.476,0,0,1-6.171,5.568,40,40,0,0,1-50.459,1.489l2.96,2.96a39.532,39.532,0,0,0,53.764,1.927,44.948,44.948,0,0,0,6.1-5.5A6.535,6.535,0,0,0,210.6,368.446Z" transform="translate(-147.775 -363.341)"/></g><g transform="translate(32.598)"><g transform="translate(0 7.274)"><path class="f" d="M168.893,46.384a1.579,1.579,0,0,1-1.578-1.543,3.588,3.588,0,0,0-3.508-3.508,1.579,1.579,0,0,1,.072-3.158,6.746,6.746,0,0,1,6.593,6.593,1.579,1.579,0,0,1-1.542,1.615Z" transform="translate(-162.264 -38.175)"/></g><g transform="translate(0.892)"><path class="f" d="M179.713,16.558a1.579,1.579,0,0,1-1.572-1.452,10.9,10.9,0,0,0-9.986-9.986,1.579,1.579,0,0,1,.254-3.148,14.062,14.062,0,0,1,12.88,12.88,1.579,1.579,0,0,1-1.447,1.7q-.065.005-.129.005Z" transform="translate(-166.703 -1.967)"/></g></g></g></g></svg>